PathFileType	4	(X/Y/Z)	/home/abdul/Desktop/myosuite/custom_workspace/IK/output/S13_12_3.trc
DataRate	CameraRate	NumFrames	NumMarkers	Units	OrigDataRate	OrigDataStartFrame	OrigNumFrames
200.0	200.0	39	3	mm	200.0	763	1525
Frame#	Time	V_Shoulder			V_Elbow			V_Wrist		
		X1	Y1	Z1	X2	Y2	Z2	X3	Y3	Z3

763	3.81	-82.96011012215241	620.6153116422616	340.46901639473026	-205.322252571047	479.12606289049336	42.08887044232015	-93.6384655902938	293.206632522512	190.90162473194584
764	3.815	-82.98371561019653	620.4948944870036	340.42001736719726	-205.21632414458324	479.1841290374594	41.83286868515526	-93.98755078264776	291.29476496000194	188.85114788535606
765	3.82	-83.00653253742637	620.3735168588097	340.37155884141566	-205.1057632541229	479.23240401603834	41.581977669676625	-94.33628371049423	289.4010129014874	186.80342593881426
766	3.825	-83.02855026108527	620.251234510141	340.323666959358	-204.99061768391277	479.2709553417977	41.33626580352127	-94.6843461810872	287.5265221952309	184.7597314036083
767	3.83	-83.04975902100034	620.128104893655	340.2763671241548	-204.87094019928432	479.29986724798414	41.095791215518474	-95.03142032541805	285.6723962192787	182.72131995359013
768	3.835	-83.07014995203352	620.0041871035554	340.22968396780726	-204.74678840485132	479.31924024463916	40.86060192667148	-95.37718930866873	283.83969416857565	180.68942822774363
769	3.84	-83.08971509478602	619.8795418122032	340.1836413205357	-204.61822459363066	479.3291906359158	40.63073604963298	-95.72133803483116	282.02942946579145	178.66527169338744
770	3.845	-83.10844740453355	619.7542312020843	340.1382621818061	-204.48531558738466	479.32984999771395	40.40622201511074	-96.06355384277245	280.2425682993645	176.6500425755729
771	3.85	-83.12634075837377	619.6283188932358	340.09356869307595	-204.34813256850595	479.3213646178807	40.18707882354337	-96.40352719106562	278.4800282918656	174.64490785800757
772	3.855	-83.14338996057255	619.5018698662503	340.04958211229217	-204.20675090379058	479.30389490134326	39.97331632030088	-96.74095232896089	276.74267730137245	172.65100736058452
773	3.86	-83.15959074610014	619.3749503809921	340.00632279017145	-204.06124996046861	479.27761474265367	39.76493549259075	-97.07552795094007	275.03133235812595	170.6694518983382
774	3.865	-83.17493978235342	619.2476278911677	339.96381014828654	-203.91171291488487	479.2427108685217	39.56192878618698	-97.40695783237919	273.34675873831975	168.70132152637007
775	3.87	-83.18943466906417	619.1199709549138	339.9220626589802	-203.75822655424537	479.1993821529986	39.36428044004943	-97.73495144393686	271.6896691764453	166.7476638749976
776	3.875	-83.20307393639878	618.9920491415735	339.8810978271206	-203.60088107186897	479.1478389080486	39.17196683686072	-98.0592245423923	270.06072321718716	164.80949257908037
777	3.88	-83.21585704125857	618.8639329348434	339.8409321737096	-203.4397698564053	479.088302152306	38.98495686748157	-98.3794997357733	268.4605267074304	162.88778580516265
778	3.885	-83.22778436179519	618.7356936324921	339.8015812213508	-203.27498927550295	479.02100286086466	38.80321230730956	-98.69550702074241	266.88963142851355	160.98348487975053
779	3.89	-83.23885719015904	618.6074032428571	339.7630594815785	-203.10663845443275	478.94618119898087	38.62668820252287	-99.00698429034628	265.34853486842707	159.09749302170837
780	3.895	-83.24907772350336	618.479134378341	339.7253804440466	-202.93481905019152	478.8640857425935	38.455333264198714	-99.31367781037952	263.83768013322947	157.23067418142068
781	3.9	-83.25844905327091	618.3509601461375	339.6885565675699	-202.759635021632	478.77497268857445	38.28909026831516	-99.61534266276902	262.3574559965281	155.3838519890168
782	3.905	-83.26697515279386	618.222954036431	339.6525992730099	-202.5811923961831	478.6791050576162	38.12789645967566	-99.91174315454666	260.90819708544785	153.5578088136025
783	3.91	-83.27466086324164	618.0951898083176	339.6175189379898	-202.3995990337423	478.5767518926493	37.97168395783621	-100.20265319114657	259.4901842010972	151.7532849350855
784	3.915	-83.2815118779552	617.9677413737107	339.5833248934221	-202.21496438833753	478.46818745564804	37.820380163165794	-100.48785661293708	258.10364477112853	149.970977829817
785	3.92	-83.28753472520987	617.8406826794984	339.55002542182757	-202.02739926817202	478.3536904256438	37.673908161231495	-100.76714749407665	256.7487534315901	148.21154157090845
786	3.925	-83.29273674945229	617.7140875882278	339.5176277574226	-201.837015594678	478.2335431007091	37.53218712376864	-101.0403304029654	255.42563273487286	146.4755863437144
787	3.93	-83.29712609106056	617.5880297576022	339.4861380879468	-201.64392616121683	478.1080306066075	37.39513270457403	-101.30722062374969	254.134353980174	144.76367807660557
788	3.935	-83.30071166467958	617.4625825190774	339.4555615582019	-201.4482443920727	477.97744011472986	37.26265742874535	-101.56764433852479	252.87493816252777	143.0763381867887
789	3.94	-83.30350313618685	617.3378187558524	339.4259022752681	-201.250084102396	477.8420600718458	37.13467107378153	-101.82143877006916	251.64735703609716	141.414043440566
790	3.945	-83.30551089834677	617.2138107805531	339.3971633153635	-201.04955925975605	477.7021794441028	37.01108104115699	-102.06845228513322	250.45153428707943	139.7772259270639
791	3.95	-83.30674604521431	617.0906302129121	339.3693467323084	-200.84678374796857	477.5580869775953	36.89179271708534	-102.30854445849332	249.28734681124757	138.16627314410516
792	3.955	-83.30722034535103	616.9683478577471	339.3424535675536	-200.641871133863	477.41007047771234	36.77670982129582	-102.5415860981688	248.1546260908446	136.5815281945447
793	3.96	-83.30694621391932	616.8470335835465	339.316483861732	-200.43493443765453	477.2584161093457	36.66573474275646	-102.76745923238383	247.05315966525473	135.0232900910462
794	3.965	-83.30593668372279	616.7267562019679	339.29143666768726	-200.22608590758176	477.10340771991025	36.55876886139132	-102.98605705903623	245.98269268960473	133.49181416693975
795	3.97	-83.30420537526241	616.6075833485568	339.26731006493486	-200.015436799464	476.94532618698986	36.45571285495481	-103.19728385861322	244.94292957520088	131.98731259047264
796	3.975	-83.30176646588032	616.4895813649913	339.2441011755076	-199.80309716182563	476.78444879227936	36.356466990342234	-103.40105487166358	243.9335357054788	130.5099549794507
797	3.98	-83.29863465806447	616.3728151831573	339.2218061811343	-199.58917562722073	476.62104862334695	36.260931398732	-103.59729614210266	242.95413922094224	129.0598691129621
798	3.985	-83.2948251469894	616.2573482113536	339.2004203417032	-199.3737792103801	476.45539400458904	36.16900633407093	-103.7859443277846	242.00433286638813	127.6371417365851
799	3.99	-83.29035358736866	616.1432422229237	339.17993801495624	-199.15701311378405	476.2877479585969	36.080592414528155	-103.96694647992679	241.08367589356473	126.2418194572046
800	3.995	-83.28523605969697	616.0305572476074	339.1603526773605	-198.9389805412471	476.11836769900026	35.995590846655325	-104.14025979311471	240.1916960122845	124.87390972330175
801	4.0	-83.27948903596005	615.919351465896	339.1416569461024	-198.71978252007762	475.94750415569547	35.91390363210014	-104.30585132774775	239.3278913829178	123.53338188633663
